{"glyphs":{"0":{"ha":707,"x_min":73,"x_max":633,"o":"m 609 884 l 477 751 l 230 751 l 98 884 l 609 884 m 609 0 l 98 0 l 230 131 l 477 131 l 609 0 m 205 335 l 205 157 l 73 25 l 73 367 l 122 417 l 205 335 m 73 516 l 73 859 l 205 727 l 205 549 l 122 466 l 73 516 m 633 367 l 633 25 l 501 157 l 501 335 l 583 417 l 633 367 m 501 549 l 501 727 l 633 859 l 633 516 l 583 466 l 501 549 z "},"1":{"ha":396,"x_min":133,"x_max":264,"o":"m 264 367 l 264 25 l 133 157 l 133 335 l 215 417 l 264 367 m 133 549 l 133 727 l 264 859 l 264 516 l 215 466 l 133 549 z "},"2":{"ha":707,"x_min":73,"x_max":633,"o":"m 609 884 l 477 751 l 230 751 l 98 884 l 609 884 m 609 0 l 98 0 l 230 131 l 477 131 l 609 0 m 205 335 l 205 157 l 73 25 l 73 367 l 122 417 l 205 335 m 501 549 l 501 727 l 633 859 l 633 516 l 583 466 l 501 549 m 494 508 l 559 442 l 494 376 l 213 376 l 148 442 l 213 508 l 494 508 z "},"3":{"ha":707,"x_min":98,"x_max":633,"o":"m 609 884 l 477 751 l 230 751 l 98 884 l 609 884 m 609 0 l 98 0 l 230 131 l 477 131 l 609 0 m 633 367 l 633 25 l 501 157 l 501 335 l 583 417 l 633 367 m 501 549 l 501 727 l 633 859 l 633 516 l 583 466 l 501 549 m 494 508 l 559 442 l 494 376 l 213 376 l 148 442 l 213 508 l 494 508 z "},"4":{"ha":707,"x_min":73,"x_max":633,"o":"m 73 516 l 73 859 l 205 727 l 205 549 l 122 466 l 73 516 m 633 367 l 633 25 l 501 157 l 501 335 l 583 417 l 633 367 m 501 549 l 501 727 l 633 859 l 633 516 l 583 466 l 501 549 m 494 508 l 559 442 l 494 376 l 213 376 l 148 442 l 213 508 l 494 508 z "},"5":{"ha":707,"x_min":73,"x_max":633,"o":"m 609 884 l 477 751 l 230 751 l 98 884 l 609 884 m 609 0 l 98 0 l 230 131 l 477 131 l 609 0 m 73 516 l 73 859 l 205 727 l 205 549 l 122 466 l 73 516 m 633 367 l 633 25 l 501 157 l 501 335 l 583 417 l 633 367 m 494 508 l 559 442 l 494 376 l 213 376 l 148 442 l 213 508 l 494 508 z "},"6":{"ha":707,"x_min":73,"x_max":633,"o":"m 609 884 l 477 751 l 230 751 l 98 884 l 609 884 m 609 0 l 98 0 l 230 131 l 477 131 l 609 0 m 205 335 l 205 157 l 73 25 l 73 367 l 122 417 l 205 335 m 73 516 l 73 859 l 205 727 l 205 549 l 122 466 l 73 516 m 633 367 l 633 25 l 501 157 l 501 335 l 583 417 l 633 367 m 494 508 l 559 442 l 494 376 l 213 376 l 148 442 l 213 508 l 494 508 z "},"7":{"ha":707,"x_min":98,"x_max":633,"o":"m 609 884 l 477 751 l 230 751 l 98 884 l 609 884 m 633 367 l 633 25 l 501 157 l 501 335 l 583 417 l 633 367 m 501 549 l 501 727 l 633 859 l 633 516 l 583 466 l 501 549 z "},"8":{"ha":707,"x_min":73,"x_max":633,"o":"m 609 884 l 477 751 l 230 751 l 98 884 l 609 884 m 609 0 l 98 0 l 230 131 l 477 131 l 609 0 m 205 335 l 205 157 l 73 25 l 73 367 l 122 417 l 205 335 m 73 516 l 73 859 l 205 727 l 205 549 l 122 466 l 73 516 m 633 367 l 633 25 l 501 157 l 501 335 l 583 417 l 633 367 m 501 549 l 501 727 l 633 859 l 633 516 l 583 466 l 501 549 m 494 508 l 559 442 l 494 376 l 213 376 l 148 442 l 213 508 l 494 508 z "},"9":{"ha":707,"x_min":73,"x_max":633,"o":"m 609 884 l 477 751 l 230 751 l 98 884 l 609 884 m 609 0 l 98 0 l 230 131 l 477 131 l 609 0 m 73 516 l 73 859 l 205 727 l 205 549 l 122 466 l 73 516 m 633 367 l 633 25 l 501 157 l 501 335 l 583 417 l 633 367 m 501 549 l 501 727 l 633 859 l 633 516 l 583 466 l 501 549 m 494 508 l 559 442 l 494 376 l 213 376 l 148 442 l 213 508 l 494 508 z "}," ":{"ha":328,"x_min":0,"x_max":0,"o":""},"!":{"ha":396,"x_min":133,"x_max":264,"o":"m 264 367 l 264 0 l 133 131 l 133 335 l 215 417 l 264 367 m 133 549 l 133 751 l 264 884 l 264 516 l 215 466 l 133 549 m 264 -177 l 133 -177 l 133 -59 l 264 -59 l 264 -177 z "},"\"":{"ha":429,"x_min":59,"x_max":370,"o":"m 191 708 l 125 641 l 59 708 l 59 884 l 191 884 l 191 708 m 370 708 l 304 641 l 237 708 l 237 884 l 370 884 l 370 708 z "},"#":{"ha":840,"x_min":73,"x_max":766,"o":"m 366 379 l 299 313 l 234 379 l 234 446 l 299 511 l 366 446 l 366 379 m 515 289 l 449 223 l 390 223 l 324 289 l 390 355 l 449 355 l 515 289 m 275 289 l 210 223 l 139 223 l 73 289 l 139 355 l 210 355 l 275 289 m 366 98 l 299 33 l 234 98 l 234 198 l 299 264 l 366 198 l 366 98 m 606 379 l 540 313 l 473 379 l 473 446 l 540 511 l 606 446 l 606 379 m 766 289 l 701 223 l 630 223 l 564 289 l 630 355 l 701 355 l 766 289 m 606 98 l 540 33 l 473 98 l 473 198 l 540 264 l 606 198 l 606 98 m 366 626 l 299 561 l 234 626 l 234 737 l 299 804 l 366 737 l 366 626 m 515 535 l 449 470 l 390 470 l 324 535 l 390 601 l 449 601 l 515 535 m 275 535 l 210 470 l 139 470 l 73 535 l 139 601 l 210 601 l 275 535 m 606 626 l 540 561 l 473 626 l 473 737 l 540 804 l 606 737 l 606 626 m 766 535 l 701 470 l 630 470 l 564 535 l 630 601 l 701 601 l 766 535 z "},"$":{"ha":707,"x_min":73,"x_max":633,"o":"m 404 913 l 273 913 l 273 1019 l 338 1085 l 404 1019 l 404 913 m 404 -136 l 338 -202 l 273 -136 l 273 -29 l 404 -29 l 404 -136 m 633 818 l 567 751 l 230 751 l 164 818 l 230 884 l 567 884 l 633 818 m 633 157 l 567 91 l 501 157 l 501 335 l 583 417 l 633 367 l 633 157 m 559 442 l 494 376 l 213 376 l 148 442 l 213 508 l 494 508 l 559 442 m 205 549 l 122 466 l 73 516 l 73 727 l 139 793 l 205 727 l 205 549 m 543 66 l 477 0 l 139 0 l 73 66 l 139 131 l 477 131 l 543 66 z "},"%":{"ha":971,"x_min":73,"x_max":896,"o":"m 366 821 l 299 755 l 230 755 l 164 821 l 230 888 l 299 888 l 366 821 m 366 534 l 299 467 l 230 467 l 164 534 l 230 600 l 299 600 l 366 534 m 73 624 l 139 562 l 205 624 l 205 730 l 139 797 l 73 730 l 73 624 m 324 624 l 324 730 l 390 797 l 456 730 l 456 624 l 390 562 l 324 624 m 806 355 l 740 289 l 672 289 l 605 355 l 672 422 l 740 422 l 806 355 m 806 74 l 740 9 l 672 9 l 605 74 l 672 140 l 740 140 l 806 74 m 514 164 l 580 102 l 646 164 l 646 265 l 580 331 l 514 265 l 514 164 m 765 164 l 765 265 l 831 331 l 896 265 l 896 164 l 831 102 l 765 164 m 499 607 l 670 904 l 850 952 l 596 513 l 529 496 l 499 607 m 521 385 l 251 -83 l 203 96 l 391 422 l 505 453 l 521 385 z "},"&":{"ha":755,"x_min":73,"x_max":740,"o":"m 543 818 l 477 751 l 230 751 l 164 818 l 230 884 l 477 884 l 543 818 m 633 516 l 583 466 l 501 549 l 501 602 l 567 668 l 633 602 l 633 516 m 633 157 l 567 91 l 501 157 l 501 335 l 583 417 l 633 367 l 633 157 m 559 442 l 494 376 l 213 376 l 148 442 l 213 508 l 494 508 l 559 442 m 205 549 l 122 466 l 73 516 l 73 727 l 139 793 l 205 727 l 205 549 m 543 66 l 477 0 l 230 0 l 164 66 l 230 131 l 477 131 l 543 66 m 205 157 l 139 91 l 73 157 l 73 367 l 122 417 l 205 335 l 205 157 m 674 376 l 609 442 l 674 508 l 740 442 l 674 376 z "},"'":{"ha":250,"x_min":59,"x_max":191,"o":"m 191 708 l 125 641 l 59 708 l 59 884 l 191 884 l 191 708 z "},"(":{"ha":436,"x_min":59,"x_max":407,"o":"m 191 549 l 109 466 l 59 516 l 59 727 l 125 793 l 191 727 l 191 549 m 59 157 l 125 91 l 191 157 l 191 335 l 109 417 l 59 367 l 59 157 m 216 751 l 149 818 l 216 884 l 407 884 l 274 751 l 216 751 m 216 0 l 149 66 l 216 131 l 274 131 l 407 0 l 216 0 z "},")":{"ha":436,"x_min":29,"x_max":378,"o":"m 287 818 l 221 751 l 162 751 l 29 884 l 221 884 l 287 818 m 378 516 l 328 466 l 245 549 l 245 727 l 312 793 l 378 727 l 378 516 m 378 157 l 312 91 l 245 157 l 245 335 l 328 417 l 378 367 l 378 157 m 287 66 l 221 0 l 29 0 l 162 131 l 221 131 l 287 66 z "},"*":{"ha":676,"x_min":59,"x_max":616,"o":"m 83 633 l 59 722 l 149 746 l 236 698 l 308 581 l 177 581 l 83 633 m 525 378 l 616 402 l 591 491 l 500 549 l 367 549 l 438 431 l 525 378 m 404 306 l 337 240 l 271 306 l 271 407 l 337 529 l 404 412 l 404 306 m 404 715 l 337 595 l 271 715 l 271 818 l 337 884 l 404 818 l 404 715 m 149 378 l 59 402 l 83 491 l 177 543 l 308 543 l 236 424 l 149 378 m 500 585 l 367 585 l 438 702 l 525 746 l 616 722 l 591 633 l 500 585 z "},"+":{"ha":653,"x_min":59,"x_max":593,"o":"m 393 533 l 327 466 l 260 533 l 260 644 l 327 710 l 393 644 l 393 533 m 593 442 l 528 376 l 417 376 l 351 442 l 417 508 l 528 508 l 593 442 m 302 442 l 236 376 l 125 376 l 59 442 l 125 508 l 236 508 l 302 442 m 393 240 l 327 174 l 260 240 l 260 351 l 327 417 l 393 351 l 393 240 z "},",":{"ha":250,"x_min":59,"x_max":191,"o":"m 191 -81 l 125 -146 l 59 -81 l 59 95 l 191 95 l 191 -81 z "},"-":{"ha":653,"x_min":59,"x_max":593,"o":"m 593 442 l 528 376 l 125 376 l 59 442 l 125 508 l 528 508 l 593 442 z "},".":{"ha":250,"x_min":59,"x_max":191,"o":"m 59 0 l 59 131 l 191 131 l 191 0 l 59 0 z "},"/":{"ha":681,"x_min":30,"x_max":653,"o":"m 328 374 l 80 -53 l 30 128 l 197 412 l 311 441 l 328 374 m 304 597 l 471 884 l 653 931 l 403 503 l 336 485 l 304 597 z "},":":{"ha":308,"x_min":88,"x_max":221,"o":"m 88 0 l 88 131 l 221 131 l 221 0 l 88 0 m 88 605 l 88 736 l 221 736 l 221 605 l 88 605 z "},";":{"ha":308,"x_min":88,"x_max":221,"o":"m 88 605 l 88 736 l 221 736 l 221 605 l 88 605 m 221 -81 l 154 -146 l 88 -81 l 88 95 l 221 95 l 221 -81 z "},"<":{"ha":495,"x_min":59,"x_max":436,"o":"m 436 644 l 245 458 l 59 458 l 342 737 l 436 737 l 436 644 m 436 146 l 342 146 l 59 423 l 245 423 l 436 239 l 436 146 z "},"=":{"ha":653,"x_min":59,"x_max":593,"o":"m 593 554 l 528 489 l 125 489 l 59 554 l 125 621 l 528 621 l 593 554 m 593 330 l 528 263 l 125 263 l 59 330 l 125 395 l 528 395 l 593 330 z "},">":{"ha":495,"x_min":59,"x_max":436,"o":"m 436 458 l 249 458 l 59 644 l 59 737 l 153 737 l 436 458 m 436 423 l 153 146 l 59 146 l 59 239 l 249 423 l 436 423 z "},"?":{"ha":707,"x_min":73,"x_max":633,"o":"m 633 516 l 583 466 l 501 549 l 501 727 l 567 793 l 633 727 l 633 516 m 543 818 l 477 751 l 205 751 l 73 884 l 477 884 l 543 818 m 205 131 l 73 0 l 73 367 l 122 417 l 205 335 l 205 131 m 494 508 l 559 442 l 494 376 l 213 376 l 148 442 l 213 508 l 494 508 m 205 -49 l 73 -49 l 73 -181 l 205 -181 l 205 -49 z "},"@":{"ha":855,"x_min":73,"x_max":804,"o":"m 780 660 l 731 610 l 648 693 l 648 727 l 780 859 l 780 660 m 755 884 l 624 751 l 230 751 l 164 818 l 230 884 l 755 884 m 706 586 l 640 520 l 420 520 l 355 586 l 420 652 l 640 652 l 706 586 m 780 236 l 648 367 l 648 479 l 731 561 l 780 511 l 780 236 m 205 549 l 122 466 l 73 516 l 73 727 l 139 793 l 205 727 l 205 549 m 755 211 l 437 211 l 371 277 l 437 343 l 624 343 l 755 211 m 412 367 l 346 302 l 279 367 l 279 511 l 330 561 l 412 479 l 412 367 m 73 367 l 122 417 l 205 335 l 205 157 l 139 91 l 73 157 l 73 367 m 230 0 l 164 66 l 230 131 l 737 131 l 804 66 l 737 0 l 230 0 z "},"A":{"ha":707,"x_min":73,"x_max":633,"o":"m 609 884 l 477 751 l 230 751 l 98 884 l 609 884 m 205 335 l 205 131 l 73 0 l 73 367 l 122 417 l 205 335 m 73 516 l 73 859 l 205 727 l 205 549 l 122 466 l 73 516 m 633 367 l 633 0 l 501 131 l 501 335 l 583 417 l 633 367 m 501 549 l 501 727 l 633 859 l 633 516 l 583 466 l 501 549 m 494 508 l 559 442 l 494 376 l 213 376 l 148 442 l 213 508 l 494 508 z "},"B":{"ha":707,"x_min":73,"x_max":633,"o":"m 205 335 l 205 157 l 73 25 l 73 367 l 122 417 l 205 335 m 73 516 l 73 859 l 205 727 l 205 549 l 122 466 l 73 516 m 494 508 l 559 442 l 494 376 l 213 376 l 148 442 l 213 508 l 494 508 m 98 0 l 230 131 l 477 131 l 543 66 l 477 0 l 98 0 m 633 516 l 583 466 l 501 549 l 501 727 l 567 793 l 633 727 l 633 516 m 543 818 l 477 751 l 230 751 l 98 884 l 477 884 l 543 818 m 633 157 l 567 91 l 501 157 l 501 335 l 583 417 l 633 367 l 633 157 z "},"C":{"ha":707,"x_min":73,"x_max":633,"o":"m 230 0 l 164 66 l 230 131 l 501 131 l 633 0 l 230 0 m 633 884 l 501 751 l 230 751 l 164 818 l 230 884 l 633 884 m 205 549 l 122 466 l 73 516 l 73 727 l 139 793 l 205 727 l 205 549 m 73 157 l 139 91 l 205 157 l 205 335 l 122 417 l 73 367 l 73 157 z "},"D":{"ha":707,"x_min":73,"x_max":633,"o":"m 205 335 l 205 157 l 73 25 l 73 367 l 122 417 l 205 335 m 73 516 l 73 859 l 205 727 l 205 549 l 122 466 l 73 516 m 98 0 l 230 131 l 477 131 l 543 66 l 477 0 l 98 0 m 633 516 l 583 466 l 501 549 l 501 727 l 567 793 l 633 727 l 633 516 m 543 818 l 477 751 l 230 751 l 98 884 l 477 884 l 543 818 m 633 157 l 567 91 l 501 157 l 501 335 l 583 417 l 633 367 l 633 157 z "},"E":{"ha":707,"x_min":73,"x_max":633,"o":"m 633 884 l 501 751 l 230 751 l 98 884 l 633 884 m 633 0 l 98 0 l 230 131 l 501 131 l 633 0 m 205 335 l 205 157 l 73 25 l 73 367 l 122 417 l 205 335 m 73 516 l 73 859 l 205 727 l 205 549 l 122 466 l 73 516 m 494 508 l 559 442 l 494 376 l 213 376 l 148 442 l 213 508 l 494 508 z "},"F":{"ha":707,"x_min":73,"x_max":633,"o":"m 633 884 l 501 751 l 230 751 l 98 884 l 633 884 m 205 335 l 205 157 l 73 25 l 73 367 l 122 417 l 205 335 m 73 516 l 73 859 l 205 727 l 205 549 l 122 466 l 73 516 m 494 508 l 559 442 l 494 376 l 213 376 l 148 442 l 213 508 l 494 508 z "},"G":{"ha":707,"x_min":73,"x_max":633,"o":"m 633 884 l 501 751 l 230 751 l 164 818 l 230 884 l 633 884 m 559 460 l 494 394 l 345 394 l 279 460 l 345 527 l 494 527 l 559 460 m 205 567 l 122 485 l 73 534 l 73 727 l 139 793 l 205 727 l 205 567 m 205 157 l 139 91 l 73 157 l 73 386 l 122 436 l 205 354 l 205 157 m 477 0 l 543 66 l 477 131 l 230 131 l 164 66 l 230 0 l 477 0 m 633 157 l 567 91 l 501 157 l 501 354 l 583 436 l 633 386 l 633 157 z "},"H":{"ha":707,"x_min":73,"x_max":633,"o":"m 205 335 l 205 131 l 73 0 l 73 367 l 122 417 l 205 335 m 73 516 l 73 884 l 205 751 l 205 549 l 122 466 l 73 516 m 633 367 l 633 0 l 501 131 l 501 335 l 583 417 l 633 367 m 501 549 l 501 751 l 633 884 l 633 516 l 583 466 l 501 549 m 494 508 l 559 442 l 494 376 l 213 376 l 148 442 l 213 508 l 494 508 z "},"I":{"ha":396,"x_min":133,"x_max":264,"o":"m 264 367 l 264 0 l 133 131 l 133 335 l 215 417 l 264 367 m 133 549 l 133 751 l 264 884 l 264 516 l 215 466 l 133 549 z "},"J":{"ha":707,"x_min":73,"x_max":633,"o":"m 633 157 l 567 91 l 501 157 l 501 335 l 583 417 l 633 367 l 633 157 m 73 157 l 139 91 l 205 157 l 205 275 l 122 359 l 73 308 l 73 157 m 230 0 l 164 66 l 230 131 l 477 131 l 543 66 l 477 0 l 230 0 m 501 549 l 501 751 l 633 884 l 633 516 l 583 466 l 501 549 z "},"K":{"ha":707,"x_min":73,"x_max":633,"o":"m 205 335 l 205 131 l 73 0 l 73 367 l 122 417 l 205 335 m 73 516 l 73 884 l 205 751 l 205 549 l 122 466 l 73 516 m 633 367 l 633 0 l 501 131 l 501 335 l 583 417 l 633 367 m 494 508 l 559 442 l 494 376 l 213 376 l 148 442 l 213 508 l 494 508 m 485 884 l 578 884 l 578 789 l 331 543 l 237 543 l 237 638 l 485 884 z "},"L":{"ha":707,"x_min":73,"x_max":633,"o":"m 633 0 l 98 0 l 230 131 l 501 131 l 633 0 m 205 335 l 205 157 l 73 25 l 73 367 l 122 417 l 205 335 m 73 516 l 73 884 l 205 751 l 205 549 l 122 466 l 73 516 z "},"M":{"ha":707,"x_min":73,"x_max":633,"o":"m 609 884 l 477 751 l 230 751 l 98 884 l 609 884 m 205 335 l 205 131 l 73 0 l 73 367 l 122 417 l 205 335 m 73 516 l 73 859 l 205 727 l 205 549 l 122 466 l 73 516 m 633 367 l 633 0 l 501 131 l 501 335 l 583 417 l 633 367 m 501 549 l 501 727 l 633 859 l 633 516 l 583 466 l 501 549 m 292 655 l 359 721 l 424 655 l 424 396 l 359 330 l 292 396 l 292 655 z "},"N":{"ha":707,"x_min":73,"x_max":633,"o":"m 205 335 l 205 131 l 73 0 l 73 367 l 122 417 l 205 335 m 73 516 l 73 884 l 205 751 l 205 549 l 122 466 l 73 516 m 633 367 l 633 0 l 501 131 l 501 335 l 583 417 l 633 367 m 501 549 l 501 751 l 633 884 l 633 516 l 583 466 l 501 549 m 109 884 l 301 884 l 471 703 l 471 609 l 378 609 l 109 884 z "},"O":{"ha":707,"x_min":73,"x_max":633,"o":"m 633 516 l 583 466 l 501 549 l 501 727 l 567 793 l 633 727 l 633 516 m 543 818 l 477 751 l 230 751 l 164 818 l 230 884 l 477 884 l 543 818 m 633 157 l 567 91 l 501 157 l 501 335 l 583 417 l 633 367 l 633 157 m 205 549 l 122 466 l 73 516 l 73 727 l 139 793 l 205 727 l 205 549 m 73 157 l 139 91 l 205 157 l 205 335 l 122 417 l 73 367 l 73 157 m 230 0 l 164 66 l 230 131 l 477 131 l 543 66 l 477 0 l 230 0 z "},"P":{"ha":707,"x_min":73,"x_max":633,"o":"m 205 335 l 205 131 l 73 0 l 73 367 l 122 417 l 205 335 m 73 516 l 73 859 l 205 727 l 205 549 l 122 466 l 73 516 m 494 508 l 559 442 l 494 376 l 213 376 l 148 442 l 213 508 l 494 508 m 633 516 l 583 466 l 501 549 l 501 727 l 567 793 l 633 727 l 633 516 m 543 818 l 477 751 l 230 751 l 98 884 l 477 884 l 543 818 z "},"Q":{"ha":707,"x_min":73,"x_max":633,"o":"m 633 534 l 583 485 l 501 567 l 501 727 l 567 793 l 633 727 l 633 534 m 543 818 l 477 751 l 230 751 l 164 818 l 230 884 l 477 884 l 543 818 m 633 275 l 567 210 l 501 275 l 501 352 l 583 434 l 633 385 l 633 275 m 205 567 l 122 485 l 73 534 l 73 727 l 139 793 l 205 727 l 205 567 m 73 157 l 139 91 l 205 157 l 205 352 l 122 434 l 73 385 l 73 157 m 230 0 l 164 66 l 230 131 l 359 131 l 424 66 l 359 0 l 230 0 m 383 157 l 383 251 l 477 251 l 633 95 l 633 0 l 539 0 l 383 157 z "},"R":{"ha":707,"x_min":73,"x_max":633,"o":"m 264 253 l 264 346 l 359 346 l 611 95 l 611 0 l 516 0 l 264 253 m 205 335 l 205 131 l 73 0 l 73 367 l 122 417 l 205 335 m 73 516 l 73 859 l 205 727 l 205 549 l 122 466 l 73 516 m 494 508 l 559 442 l 494 376 l 213 376 l 148 442 l 213 508 l 494 508 m 633 516 l 583 466 l 501 549 l 501 727 l 567 793 l 633 727 l 633 516 m 543 818 l 477 751 l 230 751 l 98 884 l 477 884 l 543 818 z "},"S":{"ha":707,"x_min":73,"x_max":633,"o":"m 633 818 l 567 751 l 230 751 l 164 818 l 230 884 l 567 884 l 633 818 m 633 157 l 567 91 l 501 157 l 501 335 l 583 417 l 633 367 l 633 157 m 205 549 l 122 466 l 73 516 l 73 727 l 139 793 l 205 727 l 205 549 m 139 0 l 73 66 l 139 131 l 477 131 l 543 66 l 477 0 l 139 0 m 494 508 l 559 442 l 494 376 l 213 376 l 148 442 l 213 508 l 494 508 z "},"T":{"ha":707,"x_min":44,"x_max":663,"o":"m 419 61 l 354 -5 l 288 61 l 288 335 l 370 417 l 419 367 l 419 61 m 419 516 l 370 466 l 288 549 l 288 650 l 354 716 l 419 650 l 419 516 m 663 818 l 596 751 l 110 751 l 44 818 l 110 884 l 596 884 l 663 818 z "},"U":{"ha":707,"x_min":73,"x_max":633,"o":"m 633 157 l 567 91 l 501 157 l 501 335 l 583 417 l 633 367 l 633 157 m 73 157 l 139 91 l 205 157 l 205 335 l 122 417 l 73 367 l 73 157 m 230 0 l 164 66 l 230 131 l 477 131 l 543 66 l 477 0 l 230 0 m 633 516 l 583 466 l 501 549 l 501 751 l 633 884 l 633 516 m 73 884 l 205 751 l 205 549 l 122 466 l 73 516 l 73 884 z "},"V":{"ha":678,"x_min":73,"x_max":633,"o":"m 633 529 l 583 480 l 501 563 l 501 751 l 633 884 l 633 529 m 205 563 l 122 480 l 73 529 l 73 884 l 205 751 l 205 563 m 583 431 l 574 314 l 340 63 l 246 63 l 246 157 l 480 408 l 583 431 m 205 63 l 139 -4 l 73 63 l 73 381 l 122 431 l 205 347 l 205 63 z "},"W":{"ha":707,"x_min":73,"x_max":633,"o":"m 633 516 l 583 466 l 501 549 l 501 751 l 633 884 l 633 516 m 205 549 l 122 466 l 73 516 l 73 884 l 205 751 l 205 549 m 633 25 l 501 157 l 501 335 l 583 417 l 633 367 l 633 25 m 424 227 l 359 162 l 292 227 l 292 487 l 359 554 l 424 487 l 424 227 m 609 0 l 98 0 l 230 131 l 477 131 l 609 0 m 205 157 l 73 25 l 73 367 l 122 417 l 205 335 l 205 157 z "},"X":{"ha":678,"x_min":73,"x_max":633,"o":"m 379 466 l 379 611 l 557 884 l 633 884 l 633 755 l 446 466 l 379 466 m 263 466 l 73 755 l 73 884 l 150 884 l 330 611 l 330 466 l 263 466 m 330 417 l 330 271 l 152 0 l 73 0 l 73 129 l 263 417 l 330 417 m 446 417 l 633 129 l 633 0 l 557 0 l 379 273 l 379 417 l 446 417 z "},"Y":{"ha":707,"x_min":73,"x_max":633,"o":"m 633 516 l 583 466 l 501 549 l 501 751 l 633 884 l 633 516 m 73 516 l 122 466 l 205 549 l 205 751 l 73 884 l 73 516 m 188 0 l 122 66 l 188 131 l 477 131 l 543 66 l 477 0 l 188 0 m 633 157 l 567 91 l 501 157 l 501 335 l 583 417 l 633 367 l 633 157 m 494 508 l 559 442 l 494 376 l 213 376 l 148 442 l 213 508 l 494 508 z "},"Z":{"ha":707,"x_min":73,"x_max":633,"o":"m 633 818 l 567 751 l 205 751 l 73 884 l 567 884 l 633 818 m 567 624 l 462 467 l 345 455 l 340 524 l 473 721 l 567 721 l 567 624 m 345 321 l 237 162 l 139 162 l 139 253 l 259 429 l 330 436 l 345 321 m 617 0 l 139 0 l 73 66 l 139 131 l 486 131 l 617 0 z "},"[":{"ha":436,"x_min":59,"x_max":407,"o":"m 407 884 l 274 751 l 216 751 l 83 884 l 407 884 m 407 0 l 83 0 l 216 131 l 274 131 l 407 0 m 191 335 l 191 157 l 59 25 l 59 367 l 109 417 l 191 335 m 59 516 l 59 859 l 191 727 l 191 549 l 109 466 l 59 516 z "},"\\":{"ha":682,"x_min":29,"x_max":650,"o":"m 378 597 l 346 485 l 279 503 l 29 931 l 210 884 l 378 597 m 650 128 l 602 -53 l 354 374 l 371 441 l 485 412 l 650 128 z "},"]":{"ha":436,"x_min":29,"x_max":378,"o":"m 352 884 l 221 751 l 162 751 l 29 884 l 352 884 m 378 516 l 328 466 l 245 549 l 245 727 l 378 859 l 378 516 m 378 25 l 245 157 l 245 335 l 328 417 l 378 367 l 378 25 m 352 0 l 29 0 l 162 131 l 221 131 l 352 0 z "},"^":{"ha":644,"x_min":59,"x_max":585,"o":"m 491 544 l 338 697 l 338 884 l 585 638 l 585 544 l 491 544 m 59 544 l 59 638 l 304 884 l 304 697 l 152 544 l 59 544 z "},"_":{"ha":654,"x_min":0,"x_max":654,"o":"m 654 -170 l 588 -236 l 66 -236 l 0 -170 l 66 -105 l 588 -105 l 654 -170 z "},"`":{"ha":336,"x_min":59,"x_max":277,"o":"m 277 734 l 253 644 l 163 668 l 59 846 l 172 913 l 277 734 z "},"a":{"ha":707,"x_min":73,"x_max":633,"o":"m 609 884 l 477 751 l 230 751 l 98 884 l 609 884 m 205 335 l 205 131 l 73 0 l 73 367 l 122 417 l 205 335 m 73 516 l 73 859 l 205 727 l 205 549 l 122 466 l 73 516 m 633 367 l 633 0 l 501 131 l 501 335 l 583 417 l 633 367 m 501 549 l 501 727 l 633 859 l 633 516 l 583 466 l 501 549 m 494 508 l 559 442 l 494 376 l 213 376 l 148 442 l 213 508 l 494 508 z "},"b":{"ha":707,"x_min":73,"x_max":633,"o":"m 205 335 l 205 157 l 73 25 l 73 367 l 122 417 l 205 335 m 73 516 l 73 859 l 205 727 l 205 549 l 122 466 l 73 516 m 494 508 l 559 442 l 494 376 l 213 376 l 148 442 l 213 508 l 494 508 m 98 0 l 230 131 l 477 131 l 543 66 l 477 0 l 98 0 m 633 516 l 583 466 l 501 549 l 501 727 l 567 793 l 633 727 l 633 516 m 543 818 l 477 751 l 230 751 l 98 884 l 477 884 l 543 818 m 633 157 l 567 91 l 501 157 l 501 335 l 583 417 l 633 367 l 633 157 z "},"c":{"ha":707,"x_min":73,"x_max":633,"o":"m 230 0 l 164 66 l 230 131 l 501 131 l 633 0 l 230 0 m 633 884 l 501 751 l 230 751 l 164 818 l 230 884 l 633 884 m 205 549 l 122 466 l 73 516 l 73 727 l 139 793 l 205 727 l 205 549 m 73 157 l 139 91 l 205 157 l 205 335 l 122 417 l 73 367 l 73 157 z "},"d":{"ha":707,"x_min":73,"x_max":633,"o":"m 205 335 l 205 157 l 73 25 l 73 367 l 122 417 l 205 335 m 73 516 l 73 859 l 205 727 l 205 549 l 122 466 l 73 516 m 98 0 l 230 131 l 477 131 l 543 66 l 477 0 l 98 0 m 633 516 l 583 466 l 501 549 l 501 727 l 567 793 l 633 727 l 633 516 m 543 818 l 477 751 l 230 751 l 98 884 l 477 884 l 543 818 m 633 157 l 567 91 l 501 157 l 501 335 l 583 417 l 633 367 l 633 157 z "},"e":{"ha":707,"x_min":73,"x_max":633,"o":"m 633 884 l 501 751 l 230 751 l 98 884 l 633 884 m 633 0 l 98 0 l 230 131 l 501 131 l 633 0 m 205 335 l 205 157 l 73 25 l 73 367 l 122 417 l 205 335 m 73 516 l 73 859 l 205 727 l 205 549 l 122 466 l 73 516 m 494 508 l 559 442 l 494 376 l 213 376 l 148 442 l 213 508 l 494 508 z "},"f":{"ha":707,"x_min":73,"x_max":633,"o":"m 633 884 l 501 751 l 230 751 l 98 884 l 633 884 m 205 335 l 205 157 l 73 25 l 73 367 l 122 417 l 205 335 m 73 516 l 73 859 l 205 727 l 205 549 l 122 466 l 73 516 m 494 508 l 559 442 l 494 376 l 213 376 l 148 442 l 213 508 l 494 508 z "},"g":{"ha":707,"x_min":73,"x_max":633,"o":"m 633 884 l 501 751 l 230 751 l 164 818 l 230 884 l 633 884 m 559 460 l 494 394 l 345 394 l 279 460 l 345 527 l 494 527 l 559 460 m 205 567 l 122 485 l 73 534 l 73 727 l 139 793 l 205 727 l 205 567 m 205 157 l 139 91 l 73 157 l 73 386 l 122 436 l 205 354 l 205 157 m 477 0 l 543 66 l 477 131 l 230 131 l 164 66 l 230 0 l 477 0 m 633 157 l 567 91 l 501 157 l 501 354 l 583 436 l 633 386 l 633 157 z "},"h":{"ha":707,"x_min":73,"x_max":633,"o":"m 205 335 l 205 131 l 73 0 l 73 367 l 122 417 l 205 335 m 73 516 l 73 884 l 205 751 l 205 549 l 122 466 l 73 516 m 633 367 l 633 0 l 501 131 l 501 335 l 583 417 l 633 367 m 501 549 l 501 751 l 633 884 l 633 516 l 583 466 l 501 549 m 494 508 l 559 442 l 494 376 l 213 376 l 148 442 l 213 508 l 494 508 z "},"i":{"ha":396,"x_min":133,"x_max":264,"o":"m 264 367 l 264 0 l 133 131 l 133 335 l 215 417 l 264 367 m 133 549 l 133 751 l 264 884 l 264 516 l 215 466 l 133 549 z "},"j":{"ha":707,"x_min":73,"x_max":633,"o":"m 633 157 l 567 91 l 501 157 l 501 335 l 583 417 l 633 367 l 633 157 m 73 157 l 139 91 l 205 157 l 205 275 l 122 359 l 73 308 l 73 157 m 230 0 l 164 66 l 230 131 l 477 131 l 543 66 l 477 0 l 230 0 m 501 549 l 501 751 l 633 884 l 633 516 l 583 466 l 501 549 z "},"k":{"ha":707,"x_min":73,"x_max":633,"o":"m 205 335 l 205 131 l 73 0 l 73 367 l 122 417 l 205 335 m 73 516 l 73 884 l 205 751 l 205 549 l 122 466 l 73 516 m 633 367 l 633 0 l 501 131 l 501 335 l 583 417 l 633 367 m 494 508 l 559 442 l 494 376 l 213 376 l 148 442 l 213 508 l 494 508 m 485 884 l 578 884 l 578 789 l 331 543 l 237 543 l 237 638 l 485 884 z "},"l":{"ha":707,"x_min":73,"x_max":633,"o":"m 633 0 l 98 0 l 230 131 l 501 131 l 633 0 m 205 335 l 205 157 l 73 25 l 73 367 l 122 417 l 205 335 m 73 516 l 73 884 l 205 751 l 205 549 l 122 466 l 73 516 z "},"m":{"ha":707,"x_min":73,"x_max":633,"o":"m 609 884 l 477 751 l 230 751 l 98 884 l 609 884 m 205 335 l 205 131 l 73 0 l 73 367 l 122 417 l 205 335 m 73 516 l 73 859 l 205 727 l 205 549 l 122 466 l 73 516 m 633 367 l 633 0 l 501 131 l 501 335 l 583 417 l 633 367 m 501 549 l 501 727 l 633 859 l 633 516 l 583 466 l 501 549 m 292 655 l 359 721 l 424 655 l 424 396 l 359 330 l 292 396 l 292 655 z "},"n":{"ha":707,"x_min":73,"x_max":633,"o":"m 205 335 l 205 131 l 73 0 l 73 367 l 122 417 l 205 335 m 73 516 l 73 884 l 205 751 l 205 549 l 122 466 l 73 516 m 633 367 l 633 0 l 501 131 l 501 335 l 583 417 l 633 367 m 501 549 l 501 751 l 633 884 l 633 516 l 583 466 l 501 549 m 109 884 l 301 884 l 471 703 l 471 609 l 378 609 l 109 884 z "},"o":{"ha":707,"x_min":73,"x_max":633,"o":"m 633 516 l 583 466 l 501 549 l 501 727 l 567 793 l 633 727 l 633 516 m 543 818 l 477 751 l 230 751 l 164 818 l 230 884 l 477 884 l 543 818 m 633 157 l 567 91 l 501 157 l 501 335 l 583 417 l 633 367 l 633 157 m 205 549 l 122 466 l 73 516 l 73 727 l 139 793 l 205 727 l 205 549 m 73 157 l 139 91 l 205 157 l 205 335 l 122 417 l 73 367 l 73 157 m 230 0 l 164 66 l 230 131 l 477 131 l 543 66 l 477 0 l 230 0 z "},"p":{"ha":707,"x_min":73,"x_max":633,"o":"m 205 335 l 205 131 l 73 0 l 73 367 l 122 417 l 205 335 m 73 516 l 73 859 l 205 727 l 205 549 l 122 466 l 73 516 m 494 508 l 559 442 l 494 376 l 213 376 l 148 442 l 213 508 l 494 508 m 633 516 l 583 466 l 501 549 l 501 727 l 567 793 l 633 727 l 633 516 m 543 818 l 477 751 l 230 751 l 98 884 l 477 884 l 543 818 z "},"q":{"ha":707,"x_min":73,"x_max":633,"o":"m 633 534 l 583 485 l 501 567 l 501 727 l 567 793 l 633 727 l 633 534 m 543 818 l 477 751 l 230 751 l 164 818 l 230 884 l 477 884 l 543 818 m 633 275 l 567 210 l 501 275 l 501 352 l 583 434 l 633 385 l 633 275 m 205 567 l 122 485 l 73 534 l 73 727 l 139 793 l 205 727 l 205 567 m 73 157 l 139 91 l 205 157 l 205 352 l 122 434 l 73 385 l 73 157 m 230 0 l 164 66 l 230 131 l 359 131 l 424 66 l 359 0 l 230 0 m 383 157 l 383 251 l 477 251 l 633 95 l 633 0 l 539 0 l 383 157 z "},"r":{"ha":707,"x_min":73,"x_max":633,"o":"m 264 253 l 264 346 l 359 346 l 611 95 l 611 0 l 516 0 l 264 253 m 205 335 l 205 131 l 73 0 l 73 367 l 122 417 l 205 335 m 73 516 l 73 859 l 205 727 l 205 549 l 122 466 l 73 516 m 494 508 l 559 442 l 494 376 l 213 376 l 148 442 l 213 508 l 494 508 m 633 516 l 583 466 l 501 549 l 501 727 l 567 793 l 633 727 l 633 516 m 543 818 l 477 751 l 230 751 l 98 884 l 477 884 l 543 818 z "},"s":{"ha":707,"x_min":73,"x_max":633,"o":"m 633 818 l 567 751 l 230 751 l 164 818 l 230 884 l 567 884 l 633 818 m 633 157 l 567 91 l 501 157 l 501 335 l 583 417 l 633 367 l 633 157 m 205 549 l 122 466 l 73 516 l 73 727 l 139 793 l 205 727 l 205 549 m 139 0 l 73 66 l 139 131 l 477 131 l 543 66 l 477 0 l 139 0 m 494 508 l 559 442 l 494 376 l 213 376 l 148 442 l 213 508 l 494 508 z "},"t":{"ha":707,"x_min":44,"x_max":663,"o":"m 419 61 l 354 -5 l 288 61 l 288 335 l 370 417 l 419 367 l 419 61 m 419 516 l 370 466 l 288 549 l 288 650 l 354 716 l 419 650 l 419 516 m 663 818 l 596 751 l 110 751 l 44 818 l 110 884 l 596 884 l 663 818 z "},"u":{"ha":707,"x_min":73,"x_max":633,"o":"m 633 157 l 567 91 l 501 157 l 501 335 l 583 417 l 633 367 l 633 157 m 73 157 l 139 91 l 205 157 l 205 335 l 122 417 l 73 367 l 73 157 m 230 0 l 164 66 l 230 131 l 477 131 l 543 66 l 477 0 l 230 0 m 633 516 l 583 466 l 501 549 l 501 751 l 633 884 l 633 516 m 73 884 l 205 751 l 205 549 l 122 466 l 73 516 l 73 884 z "},"v":{"ha":678,"x_min":73,"x_max":633,"o":"m 633 529 l 583 480 l 501 563 l 501 751 l 633 884 l 633 529 m 205 563 l 122 480 l 73 529 l 73 884 l 205 751 l 205 563 m 583 431 l 574 314 l 340 63 l 246 63 l 246 157 l 480 408 l 583 431 m 205 63 l 139 -4 l 73 63 l 73 381 l 122 431 l 205 347 l 205 63 z "},"w":{"ha":707,"x_min":73,"x_max":633,"o":"m 633 516 l 583 466 l 501 549 l 501 751 l 633 884 l 633 516 m 205 549 l 122 466 l 73 516 l 73 884 l 205 751 l 205 549 m 633 25 l 501 157 l 501 335 l 583 417 l 633 367 l 633 25 m 424 227 l 359 162 l 292 227 l 292 487 l 359 554 l 424 487 l 424 227 m 609 0 l 98 0 l 230 131 l 477 131 l 609 0 m 205 157 l 73 25 l 73 367 l 122 417 l 205 335 l 205 157 z "},"x":{"ha":678,"x_min":73,"x_max":633,"o":"m 379 466 l 379 611 l 557 884 l 633 884 l 633 755 l 446 466 l 379 466 m 263 466 l 73 755 l 73 884 l 150 884 l 330 611 l 330 466 l 263 466 m 330 417 l 330 271 l 152 0 l 73 0 l 73 129 l 263 417 l 330 417 m 446 417 l 633 129 l 633 0 l 557 0 l 379 273 l 379 417 l 446 417 z "},"y":{"ha":707,"x_min":73,"x_max":633,"o":"m 633 516 l 583 466 l 501 549 l 501 751 l 633 884 l 633 516 m 73 516 l 122 466 l 205 549 l 205 751 l 73 884 l 73 516 m 188 0 l 122 66 l 188 131 l 477 131 l 543 66 l 477 0 l 188 0 m 633 157 l 567 91 l 501 157 l 501 335 l 583 417 l 633 367 l 633 157 m 494 508 l 559 442 l 494 376 l 213 376 l 148 442 l 213 508 l 494 508 z "},"z":{"ha":707,"x_min":73,"x_max":633,"o":"m 633 818 l 567 751 l 205 751 l 73 884 l 567 884 l 633 818 m 567 624 l 462 467 l 345 455 l 340 524 l 473 721 l 567 721 l 567 624 m 345 321 l 237 162 l 139 162 l 139 253 l 259 429 l 330 436 l 345 321 m 617 0 l 139 0 l 73 66 l 139 131 l 486 131 l 617 0 z "},"{":{"ha":545,"x_min":29,"x_max":516,"o":"m 516 884 l 384 751 l 324 751 l 259 818 l 324 884 l 516 884 m 301 516 l 251 466 l 169 549 l 169 727 l 235 793 l 301 727 l 301 516 m 226 442 l 160 376 l 96 376 l 29 442 l 96 508 l 160 508 l 226 442 m 301 157 l 235 91 l 169 157 l 169 335 l 251 417 l 301 367 l 301 157 m 516 0 l 324 0 l 259 66 l 324 131 l 384 131 l 516 0 z "},"|":{"ha":438,"x_min":154,"x_max":284,"o":"m 154 -236 l 154 884 l 284 884 l 284 -236 l 154 -236 z "},"}":{"ha":545,"x_min":29,"x_max":516,"o":"m 287 818 l 221 751 l 162 751 l 29 884 l 221 884 l 287 818 m 378 549 l 295 466 l 245 516 l 245 727 l 312 793 l 378 727 l 378 549 m 516 442 l 449 376 l 385 376 l 319 442 l 385 508 l 449 508 l 516 442 m 378 157 l 312 91 l 245 157 l 245 367 l 295 417 l 378 335 l 378 157 m 287 66 l 221 0 l 29 0 l 162 131 l 221 131 l 287 66 z "},"~":{"ha":588,"x_min":59,"x_max":529,"o":"m 59 328 l 59 448 q 112 491 85 477 q 172 504 140 504 q 304 468 223 504 q 395 447 355 447 q 462 465 431 447 q 529 521 494 484 l 529 396 q 391 342 489 342 q 349 345 369 342 q 311 353 330 347 q 245 381 292 359 q 187 398 211 398 q 129 383 159 398 q 59 328 100 367 z "},"‰":{"ha":1408,"x_min":73,"x_max":1335,"o":"m 366 821 l 299 755 l 230 755 l 164 821 l 230 888 l 299 888 l 366 821 m 366 534 l 299 467 l 230 467 l 164 534 l 230 600 l 299 600 l 366 534 m 73 624 l 139 562 l 205 624 l 205 730 l 139 797 l 73 730 l 73 624 m 324 624 l 324 730 l 390 797 l 456 730 l 456 624 l 390 562 l 324 624 m 806 355 l 740 289 l 672 289 l 605 355 l 672 422 l 740 422 l 806 355 m 806 74 l 740 9 l 672 9 l 605 74 l 672 140 l 740 140 l 806 74 m 514 164 l 580 102 l 646 164 l 646 265 l 580 331 l 514 265 l 514 164 m 765 164 l 765 265 l 831 331 l 896 265 l 896 164 l 831 102 l 765 164 m 499 607 l 670 904 l 850 952 l 596 513 l 529 496 l 499 607 m 521 385 l 251 -83 l 203 96 l 391 422 l 505 453 l 521 385 m 1244 355 l 1178 289 l 1109 289 l 1043 355 l 1109 422 l 1178 422 l 1244 355 m 1244 74 l 1178 9 l 1109 9 l 1043 74 l 1109 140 l 1178 140 l 1244 74 m 952 164 l 1018 102 l 1083 164 l 1083 265 l 1018 331 l 952 265 l 952 164 m 1203 164 l 1203 265 l 1269 331 l 1335 265 l 1335 164 l 1269 102 l 1203 164 z "},"’":{"ha":250,"x_min":59,"x_max":191,"o":"m 191 641 l 59 641 l 59 818 l 125 884 l 191 818 l 191 641 z "},"“":{"ha":250,"x_min":59,"x_max":191,"o":"m 191 708 l 125 641 l 59 708 l 59 884 l 191 884 l 191 708 z "},"”":{"ha":429,"x_min":59,"x_max":370,"o":"m 370 641 l 237 641 l 237 818 l 304 884 l 370 818 l 370 641 m 191 641 l 59 641 l 59 818 l 125 884 l 191 818 l 191 641 z "},"•":{"ha":429,"x_min":59,"x_max":370,"o":"m 191 708 l 125 641 l 59 708 l 59 884 l 191 884 l 191 708 m 370 708 l 304 641 l 237 708 l 237 884 l 370 884 l 370 708 z "},"–":{"ha":648,"x_min":59,"x_max":588,"o":"m 59 442 q 137 629 59 552 q 323 707 215 707 q 511 630 434 707 q 588 442 588 553 q 511 254 588 332 q 323 177 433 177 q 136 254 213 177 q 59 442 59 331 z "},"—":{"ha":672,"x_min":-3,"x_max":669,"o":"m 621 489 l 669 442 l 621 395 l 45 395 l -3 442 l 45 489 l 621 489 z "}}}
